<?xml version="1.0" encoding="utf-8"?>
<!-- Generator: Adobe Illustrator 25.2.1, SVG Export Plug-In . SVG Version: 6.00 Build 0)  -->
<svg version="1.1" id="Layer_1" xmlns="http://www.w3.org/2000/svg" xmlns:xlink="http://www.w3.org/1999/xlink" x="0px" y="0px"
	 viewBox="0 0 1229.23 83.81" style="enable-background:new 0 0 1229.23 83.81;" xml:space="preserve">
<style type="text/css">
	.st0{stroke:#000000;stroke-width:3;stroke-miterlimit:10;}
</style>
<g>
	<rect x="791.45" y="37.72" class="st0" width="54.47" height="6.71"/>
	<rect x="791.45" y="74.72" class="st0" width="56.18" height="6.91"/>
	<polygon class="st0" points="845.84,9.44 845.92,9.44 845.92,2.19 791.45,2.19 791.45,9.43 845.84,9.43 	"/>
</g>
<path class="st0" d="M72.44,2.19l-30.64,69l-30.41-69H2.3l35.18,79.44h8.28L80.96,2.19H72.44z"/>
<path class="st0" d="M110.58,2.19v79.44h8.39V2.19H110.58z"/>
<path class="st0" d="M171.41,74.36V2.19h-8.39v79.44h52.88v-7.26H171.41z"/>
<path class="st0" d="M256.42,74.36V2.19h-8.4v79.44h52.88v-7.26H256.42z"/>
<path class="st0" d="M365.15,2.19h-8.29l-36.31,79.44h8.73l31.67-70.71l31.67,70.71h8.84L365.15,2.19z"/>
<path class="st0" d="M487.61,68.69c-6.12,4.43-13.16,6.12-20.77,6.12c-19.52,0-33.93-14.07-33.93-32.91
	c0-18.95,14.41-32.9,34.04-32.9c9.3,0,17.25,2.72,23.95,9.3l5.23-5.34C489.09,5.35,478.65,1.5,466.62,1.5
	c-24.28,0-41.99,17.14-41.99,40.4c0,23.27,17.71,40.41,41.88,40.41c11.01,0,21.68-3.4,29.17-10.1V41.9h-8.07V68.69z"/>
<rect x="537.56" y="37.72" class="st0" width="54.47" height="6.71"/>
<rect x="537.56" y="74.72" class="st0" width="56.18" height="6.91"/>
<polygon class="st0" points="591.95,9.43 591.95,9.44 592.03,9.44 592.03,2.19 537.56,2.19 537.56,9.43 "/>
<path class="st0" d="M711.89,2.19h-32.34v79.44h32.34c25.42,0,42.56-16.34,42.56-39.72C754.44,18.52,737.31,2.19,711.89,2.19z
	 M711.44,74.36h-23.5V9.44h23.5c21.1,0,34.72,13.39,34.72,32.45C746.16,60.97,732.54,74.36,711.44,74.36z"/>
<path class="st0" d="M943.65,2.19v64.46L892.46,2.19h-6.92v79.44h8.39V17.16l51.07,64.46h6.92V2.19H943.65z"/>
<path class="st0" d="M983.49,2.19v7.26h27.92v72.18h8.39V9.44h27.91V2.19H983.49z"/>
<path class="st0" d="M1107.2,2.19h-8.28l-36.32,79.44h8.74L1103,10.92l31.67,70.71h8.86L1107.2,2.19z"/>
<path class="st0" d="M1183.24,74.36V2.19h-8.39v79.44h52.88v-7.26H1183.24z"/>
</svg>
