<svg height='100px' width='100px'  fill="#266980" xmlns="http://www.w3.org/2000/svg" xmlns:xlink="http://www.w3.org/1999/xlink" version="1.1" x="0px" y="0px" viewBox="0 0 100 100" style="enable-background:new 0 0 100 100;" xml:space="preserve"><path d="M51.3,87.9L69.9,82V55.4l-0.8-1.1c-0.1-0.2-3.5-5-7-10.8c-0.5-0.9-1.1-1.8-1.5-2.6l-9.3,2.9V87.9z"></path><polygon points="27.5,37.9 8.8,43.7 8.8,87.9 27.5,82 "></polygon><polygon points="30.1,82 48.7,87.9 48.7,43.7 30.1,37.9 "></polygon><path d="M91.2,43.7l-9.3-2.9c-0.5,0.9-1,1.7-1.5,2.6c-3.4,5.8-6.8,10.6-7,10.8l-0.8,1.1V82l18.6,5.9V43.7z"></path><path d="M69.9,50.8c0.8,1.2,1.3,1.9,1.3,1.9s0.5-0.7,1.3-1.9c1.6-2.3,4.3-6.4,6.8-10.8c3-5.2,5.6-10.8,5.6-14.2  c0-7.6-6.1-13.7-13.7-13.7c-7.6,0-13.7,6.1-13.7,13.7c0,3.3,2.7,8.9,5.6,14.2C65.6,44.4,68.4,48.5,69.9,50.8z M71.2,19.4  c3.6,0,6.5,2.9,6.5,6.5c0,3.6-2.9,6.5-6.5,6.5c-3.6,0-6.5-2.9-6.5-6.5C64.7,22.3,67.7,19.4,71.2,19.4z"></path></svg>