<svg height='100px' width='100px'  fill="#052639" xmlns="http://www.w3.org/2000/svg" xmlns:xlink="http://www.w3.org/1999/xlink" version="1.1" x="0px" y="0px" viewBox="0 0 100 100" enable-background="new 0 0 100 100" xml:space="preserve"><path d="M46.533,34.958c0-11.468-9.299-20.764-20.767-20.764C14.298,14.194,5,23.49,5,34.958c0,11.228,8.917,20.353,20.05,20.731  c-1.347,9.105-7.876,20.199-17.792,30.115C25.319,85.807,46.533,60.059,46.533,34.958z"></path><path d="M74.232,14.194c-11.467,0-20.767,9.296-20.767,20.764c0,11.228,8.917,20.353,20.05,20.731  c-1.347,9.105-7.875,20.199-17.791,30.115C73.786,85.807,95,60.059,95,34.958C95,23.49,85.702,14.194,74.232,14.194z"></path></svg>